<svg width="53" height="73" viewBox="0 0 53 73" fill="none" xmlns="http://www.w3.org/2000/svg">
<path d="M51.9813 51.6546C51.8394 51.4708 51.6897 51.2812 51.5339 51.0837C49.1809 48.1025 45.4191 43.336 45.4191 29.6562C45.4191 18.5779 38.9739 9.70957 30.2833 7.53383V4.5625C30.2833 2.04314 28.5892 0 26.5 0C24.4108 0 22.7167 2.04314 22.7167 4.5625L51.9813 51.6546ZM51.9813 51.6546C52.6912 52.5728 53.0058 53.6735 52.9999 54.75L51.9813 51.6546ZM51.5856 51.9602L51.5858 51.9604C52.2195 52.7802 52.5053 53.7689 52.4999 54.7473V54.7475C52.4889 56.9331 51.081 58.8125 49.2024 58.8125H3.79761C1.9192 58.8125 0.51224 56.9333 0.500074 54.7473C0.4947 53.7692 0.780389 52.7817 1.41442 51.9602C1.5541 51.7793 1.70226 51.5917 1.8573 51.3953C2.958 50.0013 4.40506 48.1686 5.61958 45.2047C7.00458 41.8248 8.08095 36.998 8.08095 29.6562C8.08095 18.7597 14.4131 10.1281 22.8381 8.01886L23.2167 7.92408V7.53383V4.5625C23.2167 2.22755 24.7705 0.5 26.5 0.5C28.2295 0.5 29.7833 2.22755 29.7833 4.5625V7.53383V7.92408L30.1619 8.01886C38.5869 10.1281 44.9191 18.7597 44.9191 29.6562C44.9191 36.998 45.9954 41.8248 47.3804 45.2047C48.5949 48.1686 50.042 50.0013 51.1427 51.3953C51.2977 51.5917 51.4459 51.7793 51.5856 51.9602ZM33.5563 64.375C33.3423 68.9869 30.1868 72.5 26.5 72.5C22.8132 72.5 19.6577 68.9869 19.4437 64.375H33.5563Z" fill="white" stroke="white"/>
</svg>
